<svg width="16" height="16" viewBox="0 0 16 16" fill="none" xmlns="http://www.w3.org/2000/svg">
<path fill-rule="evenodd" clip-rule="evenodd" d="M1 0C0.447716 0 0 0.447708 0 1V15C0 15.5523 0.447716 16 1 16H15C15.5523 16 16 15.5523 16 15V1C16 0.447708 15.5523 0 15 0H1ZM14.8087 2.58817C15.1336 2.14153 15.0348 1.5161 14.5882 1.19127C14.1415 0.866425 13.5161 0.965179 13.1913 1.41183L6.03568 11.2507L2.83205 6.4453C2.5257 5.98578 1.90483 5.8616 1.4453 6.16795C0.985771 6.4743 0.861597 7.09517 1.16795 7.5547L5.16795 13.5547C5.34941 13.8269 5.65254 13.9931 5.9796 13.9998C6.30667 14.0065 6.61632 13.8527 6.80873 13.5882L14.8087 2.58817Z" fill="#45015D"/>
</svg>
